<?xml version="1.0"?>
<svg xmlns="http://www.w3.org/2000/svg" version="1" viewBox="0 0 24 24" enable-background="new 0 0 24 24">
    <path d="M 12 3 C 6.4666667 3 2 7.4666667 2 13 C 2 15.022222 2.6856329 16.882305 3.65625 18.5 L 5.34375 17.5 C 5.3317015 17.479919 5.3244149 17.457647 5.3125 17.4375 L 6.5625 16.71875 L 6.0625 15.875 L 4.84375 16.5625 C 4.3851778 15.58793 4.1026491 14.55705 4.03125 13.5 L 5.5 13.5 L 5.5 12.5 L 4.03125 12.5 C 4.0985877 11.401554 4.354913 10.364388 4.8125 9.4375 L 6.0625 10.125 L 6.5625 9.28125 L 5.3125 8.5625 C 5.8996215 7.6769487 6.6746098 6.9289387 7.5625 6.34375 L 8.28125 7.5625 L 9.125 7.0625 L 8.4375 5.84375 C 9.3703314 5.3855624 10.396545 5.0986473 11.5 5.03125 L 11.5 6.5 L 12.5 6.5 L 12.5 5.03125 C 13.603455 5.0986473 14.629669 5.3855624 15.5625 5.84375 L 14.875 7.0625 L 15.71875 7.5625 L 16.4375 6.34375 C 17.32539 6.9289387 18.100378 7.6769487 18.6875 8.5625 L 18.34375 8.78125 L 18.84375 9.625 L 19.1875 9.4375 C 19.645087 10.364388 19.901412 11.401554 19.96875 12.5 L 18.5 12.5 L 18.5 13.5 L 19.96875 13.5 C 19.897092 14.611276 19.608092 15.640145 19.15625 16.5625 L 17.9375 15.875 L 17.4375 16.71875 L 18.6875 17.4375 C 18.680035 17.449231 18.663763 17.457063 18.65625 17.46875 L 20.34375 18.53125 C 21.333551 16.99156 22 15.110526 22 13 C 22 7.4666667 17.533333 3 12 3 z M 18.1875 9.3125 L 13.25 11.4375 C 12.907833 11.164124 12.469397 11 12 11 C 10.9 11 10 11.9 10 13 C 10 14.1 10.9 15 12 15 C 13.1 15 14 14.1 14 13 C 14 12.883529 13.988099 12.767405 13.96875 12.65625 L 18.3125 9.40625 L 18.1875 9.3125 z M 8 18 L 8 20 L 16 20 L 16 18 L 8 18 z"/>
</svg>
